<svg xmlns="http://www.w3.org/2000/svg" xmlns:xlink="http://www.w3.org/1999/xlink" version="1.1" x="0px" y="0px" viewBox="0 0 100 125" enable-background="new 0 0 100 100" xml:space="preserve"><g><rect x="49" y="12.797" width="2" height="72.775"/></g><g><path d="M49.976,87.253c-0.001,0-0.003,0-0.005,0c-0.763-0.002-1.486-0.396-1.983-1.083l-4.617-6.372   c-0.324-0.447-0.225-1.073,0.223-1.396s1.074-0.224,1.396,0.223l4.617,6.372c0.118,0.163,0.252,0.256,0.369,0.257c0,0,0,0,0,0   c0.116,0,0.25-0.093,0.369-0.254l4.667-6.378c0.326-0.446,0.952-0.544,1.397-0.217c0.446,0.326,0.543,0.952,0.217,1.397   l-4.667,6.378C51.459,86.862,50.737,87.253,49.976,87.253z"/></g></svg>